<?xml version="1.0" ?><!DOCTYPE svg  PUBLIC '-//W3C//DTD SVG 1.1//EN'  'http://www.w3.org/Graphics/SVG/1.1/DTD/svg11.dtd'><svg height="100%" style="fill-rule:evenodd;clip-rule:evenodd;stroke-linejoin:round;stroke-miterlimit:2;" version="1.1" viewBox="0 0 100 100" width="100%" xml:space="preserve" xmlns="http://www.w3.org/2000/svg" xmlns:serif="http://www.serif.com/" xmlns:xlink="http://www.w3.org/1999/xlink"><g transform="matrix(1,0,0,1,-50,-50)"><g id="Layer1"><path d="M74.5,53L135.5,53C136.328,53 137,53.672 137,54.5L137,130.5C137,131.328 136.328,132 135.5,132L135.5,132C133.909,132 132.383,132.632 131.257,133.757C130.132,134.883 129.5,136.409 129.5,138C129.5,138.031 129.375,140.36 131.257,142.243C132.383,143.368 133.909,144 135.5,144L135.5,144C136.328,144 137,144.672 137,145.5C137,146.328 136.328,147 135.5,147L72,147C69.613,147 67.324,146.052 65.636,144.364C62.951,141.679 62.989,138.311 63,137.977L63,64.5C63,58.149 68.149,53 74.5,53ZM127.319,134.25C127.692,133.436 128.187,132.677 128.792,132L72,132C70.409,132 68.883,132.632 67.757,133.757C66.632,134.883 66,136.409 66,138C66,138.022 65.909,140.394 67.757,142.243C68.883,143.368 70.409,144 72,144L128.792,144C126.383,141.318 126.484,138.255 126.5,137.97C126.501,137.729 126.511,137.489 126.531,137.25L88.532,137.25L88.532,140.25C88.532,141.078 87.861,141.75 87.032,141.75L78.532,141.75C77.704,141.75 77.032,141.078 77.032,140.25L77.032,137.25L74.5,137.25C73.672,137.25 73,136.578 73,135.75C73,134.922 73.672,134.25 74.5,134.25L127.319,134.25ZM85.532,137.25L85.532,138.75C85.532,138.75 80.032,138.75 80.032,138.75C80.032,138.75 80.032,137.25 80.032,137.25L85.532,137.25ZM73,56.132C69.021,56.84 66,60.317 66,64.5L66,131.292C67.646,129.82 69.781,129 72,129L73,129L73,56.132ZM76,129L134,129L134,56C134,56 76,56 76,56L76,129ZM97.669,66.991C97.113,66.742 96.526,66.606 95.925,66.574C93.843,66.466 91.437,67.713 89.61,70.455C87.275,73.957 86.654,78.79 87.81,82.19C87.074,82.6 86.389,83.229 85.792,84.064C84.43,85.969 83.5,89.033 83.5,92.5C83.5,95.967 84.43,99.031 85.792,100.936C86.389,101.771 87.074,102.4 87.81,102.81C86.654,106.21 87.275,111.043 89.61,114.545C91.437,117.287 93.843,118.534 95.925,118.426C96.526,118.394 97.113,118.258 97.669,118.009C98.724,121.521 101.653,124 105,124C108.347,124 111.276,121.521 112.331,118.009C112.887,118.258 113.474,118.394 114.075,118.426C116.157,118.534 118.563,117.287 120.39,114.545C122.725,111.043 123.346,106.21 122.19,102.81C122.926,102.4 123.611,101.771 124.208,100.936C125.57,99.031 126.5,95.967 126.5,92.5C126.5,89.033 125.57,85.969 124.208,84.064C123.611,83.229 122.926,82.6 122.19,82.19C123.346,78.79 122.725,73.957 120.39,70.455C118.563,67.713 116.157,66.466 114.075,66.574C113.474,66.606 112.887,66.742 112.331,66.991C111.276,63.479 108.347,61 105,61C101.653,61 98.724,63.479 97.669,66.991L97.669,66.991ZM109.047,118.211C107.747,118.728 106.391,119 105,119C103.609,119 102.253,118.728 100.953,118.211C101.777,119.871 103.254,121 105,121C106.746,121 108.223,119.871 109.047,118.211ZM110.012,70.717C110.186,70.972 110.438,71.172 110.74,71.281C111.427,71.854 112.08,72.524 112.696,73.276C116.242,77.61 118.5,84.617 118.5,92.5C118.5,100.383 116.242,107.39 112.696,111.724C112.08,112.476 111.427,113.146 110.74,113.719C110.438,113.828 110.186,114.028 110.012,114.283C108.471,115.38 106.784,116 105,116C103.216,116 101.529,115.38 99.988,114.283C99.814,114.028 99.562,113.828 99.26,113.719C98.573,113.146 97.92,112.476 97.304,111.724C93.758,107.39 91.5,100.383 91.5,92.5C91.5,84.617 93.758,77.61 97.304,73.276C97.92,72.524 98.573,71.854 99.26,71.281C99.562,71.172 99.814,70.972 99.988,70.717C101.529,69.62 103.216,69 105,69C106.784,69 108.471,69.62 110.012,70.717ZM119.652,104.745C118.523,108.253 116.929,111.288 115.017,113.624C114.544,114.202 114.052,114.738 113.542,115.229C114.868,115.819 116.581,114.85 117.894,112.881C119.5,110.472 120.168,107.239 119.652,104.745ZM90.348,104.745C89.832,107.239 90.5,110.472 92.106,112.881C93.419,114.85 95.132,115.819 96.458,115.229C95.948,114.738 95.456,114.202 94.983,113.624C93.071,111.288 91.477,108.253 90.348,104.745ZM106.407,82.948C106.189,82.359 105.628,81.968 105,81.968C104.372,81.968 103.811,82.359 103.593,82.948L101.393,88.893C101.393,88.893 95.448,91.093 95.448,91.093C94.859,91.311 94.468,91.872 94.468,92.5C94.468,93.128 94.859,93.689 95.448,93.907L101.393,96.107C101.393,96.107 103.593,102.052 103.593,102.052C103.811,102.641 104.372,103.032 105,103.032C105.628,103.032 106.189,102.641 106.407,102.052L108.607,96.107C108.607,96.107 114.552,93.907 114.552,93.907C115.141,93.689 115.532,93.128 115.532,92.5C115.532,91.872 115.141,91.311 114.552,91.093L108.607,88.893C108.607,88.893 106.407,82.948 106.407,82.948ZM89.195,84.837C88.846,85.045 88.53,85.392 88.233,85.808C87.155,87.315 86.5,89.759 86.5,92.5C86.5,95.241 87.155,97.685 88.233,99.192C88.53,99.608 88.846,99.955 89.195,100.163C88.744,97.741 88.5,95.167 88.5,92.5C88.5,89.833 88.744,87.259 89.195,84.837ZM120.805,84.837C121.256,87.259 121.5,89.833 121.5,92.5C121.5,95.167 121.256,97.741 120.805,100.163C121.154,99.955 121.47,99.608 121.767,99.192C122.845,97.685 123.5,95.241 123.5,92.5C123.5,89.759 122.845,87.315 121.767,85.808C121.47,85.392 121.154,85.045 120.805,84.837ZM105,87.79L106.033,90.581C106.185,90.992 106.508,91.315 106.919,91.467L109.71,92.5C109.71,92.5 106.919,93.533 106.919,93.533C106.508,93.685 106.185,94.008 106.033,94.419L105,97.21C105,97.21 103.967,94.419 103.967,94.419C103.815,94.008 103.492,93.685 103.081,93.533L100.29,92.5C100.29,92.5 103.081,91.467 103.081,91.467C103.492,91.315 103.815,90.992 103.967,90.581C103.967,90.581 105,87.79 105,87.79ZM96.458,69.771C95.132,69.181 93.419,70.15 92.106,72.119C90.5,74.528 89.832,77.761 90.348,80.255C91.477,76.747 93.071,73.712 94.983,71.376C95.456,70.798 95.948,70.262 96.458,69.771ZM119.652,80.255C120.168,77.761 119.5,74.528 117.894,72.119C116.581,70.15 114.868,69.181 113.542,69.771C114.052,70.262 114.544,70.798 115.017,71.376C116.929,73.712 118.523,76.747 119.652,80.255ZM109.047,66.789C108.223,65.129 106.746,64 105,64C103.254,64 101.777,65.129 100.953,66.789C102.253,66.272 103.609,66 105,66C106.391,66 107.747,66.272 109.047,66.789Z"/></g></g></svg>