<svg id="Layer_1" enable-background="new 0 0 511.998 511.998" height="512" viewBox="0 0 511.998 511.998" width="512" xmlns="http://www.w3.org/2000/svg"><g><path d="m207.439 315.661-126.795-26.594v30.484l160.168 33.594c-1.678-18.23-15.194-33.671-33.373-37.484z"/><path d="m271.164 353.145 160.168-33.594v-30.484l-126.796 26.594c-18.178 3.813-31.695 19.254-33.372 37.484z"/><path d="m50.644 343.911v-280.732l-50.644-10.622v335.816l72.18 15.14-52.464 71.03h107.091l39.664-51.253 74.528 15.632v-55.085z"/><path d="m213.598 286.3c10.12 2.123 19.394 6.351 27.401 12.166v-220.605c-8.245-6.089-17.837-10.514-28.322-12.714l-132.033-27.692v220.959z"/><path d="m511.998 388.288v-335.731l-50.665 10.626v280.728l-190.334 39.921v55.09l74.528-15.632 39.664 51.253h107.091l-52.464-71.03z"/><path d="m298.378 286.3 132.955-27.886v-220.959l-132.034 27.692c-10.476 2.198-20.061 6.617-28.3 12.698v220.604c8.002-5.806 17.269-10.029 27.379-12.149z"/></g></svg>